<svg xmlns="http://www.w3.org/2000/svg" width="375" viewBox="0 0 375 150" height="150" version="1.0"><defs><clipPath id="a"><path d="M 64 5.511719 L 92 5.511719 L 92 72 L 64 72 Z M 64 5.511719"/></clipPath><clipPath id="b"><path d="M 86.761719 10 L 112.574219 10 L 112.574219 73.332031 L 86.761719 73.332031 Z M 86.761719 10"/></clipPath><clipPath id="c"><path d="M 45 5.511719 L 76 5.511719 L 76 73 L 45 73 Z M 45 5.511719"/></clipPath><clipPath id="d"><path d="M 39.6875 104 L 79.953125 104 L 79.953125 142.753906 L 39.6875 142.753906 Z M 39.6875 104"/></clipPath></defs><path fill="#FFF" d="M-37.5 -15H412.5V165H-37.5z"/><path fill="#FFF" d="M-37.5 -15H412.5V165H-37.5z"/><path fill="#8DCB97" d="M-37.5 -15H412.5V165H-37.5z"/><g clip-path="url(#a)"><path fill="#CDE6D1" d="M 71.238281 71.667969 L 72.992188 71.863281 C 75.382812 72.128906 77.707031 70.71875 78.816406 68.328125 C 79.851562 66.097656 80.933594 63.765625 82.070312 61.320312 C 82.273438 60.875 82.433594 60.40625 82.542969 59.921875 L 91.527344 20.078125 C 92.0625 17.695312 91.328125 15.214844 89.628906 13.691406 C 87.328125 11.621094 84.96875 9.503906 82.554688 7.335938 C 80.839844 5.792969 78.449219 5.507812 76.425781 6.601562 C 73.480469 8.1875 70.605469 9.738281 67.796875 11.25 C 65.753906 12.355469 64.453125 14.664062 64.46875 17.15625 C 64.574219 33.695312 64.660156 46.957031 64.730469 57.828125 C 64.734375 58.246094 64.773438 58.664062 64.851562 59.070312 L 66.300781 66.761719 C 66.800781 69.421875 68.789062 71.394531 71.238281 71.667969"/></g><path fill="#DFEDE1" d="M 66.390625 106.433594 L 69.976562 106.832031 L 79.484375 11.832031 C 79.527344 11.390625 79.246094 11 78.847656 10.957031 C 78.449219 10.910156 78.085938 11.230469 78.03125 11.667969 L 66.390625 106.433594"/><path fill="#CDE6D1" d="M 81.863281 72.039062 L 82.980469 72.316406 C 84.496094 72.695312 86.253906 71.425781 87.390625 69.132812 C 88.445312 66.992188 89.554688 64.753906 90.710938 62.410156 C 90.921875 61.984375 91.109375 61.527344 91.261719 61.058594 L 103.933594 22.386719 C 104.691406 20.074219 104.636719 17.601562 103.785156 16.023438 C 102.632812 13.878906 101.453125 11.683594 100.246094 9.4375 C 99.386719 7.839844 97.871094 7.441406 96.363281 8.414062 C 94.167969 9.828125 92.023438 11.210938 89.929688 12.558594 C 88.402344 13.542969 87.160156 15.742188 86.742188 18.191406 C 83.988281 34.433594 81.78125 47.457031 79.972656 58.132812 C 79.902344 58.542969 79.859375 58.953125 79.839844 59.359375 L 79.472656 66.980469 C 79.347656 69.617188 80.308594 71.648438 81.863281 72.039062"/><path fill="#DFEDE1" d="M 72.761719 105.929688 L 75.039062 106.496094 L 97.46875 13.699219 C 97.574219 13.269531 97.457031 12.871094 97.203125 12.808594 C 96.949219 12.746094 96.660156 13.039062 96.550781 13.46875 L 72.761719 105.929688"/><g clip-path="url(#b)"><path fill="#CDE6D1" d="M 88.246094 72.945312 L 89.089844 73.21875 C 90.238281 73.589844 91.777344 72.347656 92.945312 70.101562 C 94.039062 68.003906 95.183594 65.8125 96.382812 63.511719 C 96.601562 63.09375 96.800781 62.652344 96.980469 62.191406 L 111.675781 24.285156 C 112.554688 22.019531 112.8125 19.597656 112.335938 18.046875 C 111.691406 15.941406 111.03125 13.789062 110.355469 11.585938 C 109.875 10.019531 108.734375 9.628906 107.425781 10.578125 C 105.527344 11.964844 103.671875 13.316406 101.859375 14.636719 C 100.539062 15.597656 99.292969 17.753906 98.664062 20.152344 C 94.515625 36.078125 91.1875 48.84375 88.457031 59.308594 C 88.351562 59.710938 88.269531 60.113281 88.203125 60.511719 L 86.984375 67.984375 C 86.5625 70.566406 87.070312 72.5625 88.246094 72.945312"/></g><path fill="#DFEDE1" d="M 76.945312 106.164062 L 78.664062 106.722656 L 107.652344 15.761719 C 107.789062 15.339844 107.742188 14.953125 107.550781 14.890625 C 107.359375 14.828125 107.09375 15.117188 106.957031 15.535156 L 76.945312 106.164062"/><g clip-path="url(#c)"><path fill="#CDE6D1" d="M 61.179688 72.152344 L 59.222656 72.152344 C 56.558594 72.152344 54.175781 70.496094 53.246094 67.996094 C 52.382812 65.664062 51.476562 63.226562 50.527344 60.667969 C 50.355469 60.203125 50.234375 59.71875 50.175781 59.226562 L 45.175781 18.632812 C 44.878906 16.207031 45.992188 13.820312 48.046875 12.496094 C 50.835938 10.695312 53.691406 8.847656 56.613281 6.960938 C 58.691406 5.621094 61.355469 5.601562 63.449219 6.914062 C 66.496094 8.816406 69.46875 10.675781 72.375 12.492188 C 74.492188 13.816406 75.640625 16.253906 75.316406 18.726562 C 73.167969 35.152344 71.449219 48.324219 70.035156 59.121094 C 69.984375 59.539062 69.886719 59.945312 69.753906 60.34375 L 67.214844 67.828125 C 66.335938 70.414062 63.910156 72.152344 61.179688 72.152344"/></g><path fill="#DFEDE1" d="M 62.246094 107.242188 L 58.253906 107.242188 L 59.441406 11.773438 C 59.445312 11.328125 59.808594 10.972656 60.25 10.972656 C 60.691406 10.972656 61.054688 11.328125 61.058594 11.773438 L 62.246094 107.242188"/><path fill="#CDE6D1" d="M 48.457031 72.101562 L 46.703125 72.296875 C 44.3125 72.5625 41.988281 71.15625 40.878906 68.765625 C 39.84375 66.535156 38.761719 64.199219 37.625 61.753906 C 37.421875 61.308594 37.261719 60.839844 37.152344 60.355469 L 28.167969 20.511719 C 27.632812 18.128906 28.367188 15.648438 30.0625 14.125 C 32.367188 12.054688 34.726562 9.9375 37.140625 7.769531 C 38.855469 6.230469 41.246094 5.941406 43.269531 7.035156 C 46.214844 8.621094 49.089844 10.171875 51.898438 11.6875 C 53.941406 12.789062 55.242188 15.097656 55.226562 17.589844 C 55.121094 34.128906 55.035156 47.390625 54.964844 58.261719 C 54.960938 58.679688 54.921875 59.097656 54.84375 59.503906 L 53.394531 67.195312 C 52.894531 69.855469 50.90625 71.828125 48.457031 72.101562"/><path fill="#DFEDE1" d="M 53.300781 106.867188 L 49.71875 107.265625 L 40.210938 12.265625 C 40.167969 11.824219 40.449219 11.433594 40.847656 11.390625 C 41.246094 11.347656 41.609375 11.664062 41.664062 12.105469 L 53.300781 106.867188"/><path fill="#CDE6D1" d="M 37.832031 72.472656 L 36.714844 72.75 C 35.199219 73.128906 33.441406 71.859375 32.304688 69.566406 C 31.25 67.429688 30.140625 65.191406 28.984375 62.84375 C 28.769531 62.417969 28.585938 61.964844 28.433594 61.496094 L 15.761719 22.820312 C 15.003906 20.507812 15.058594 18.035156 15.910156 16.457031 C 17.0625 14.3125 18.242188 12.117188 19.449219 9.871094 C 20.308594 8.273438 21.824219 7.878906 23.332031 8.847656 C 25.527344 10.261719 27.671875 11.644531 29.765625 12.992188 C 31.292969 13.976562 32.539062 16.175781 32.953125 18.625 C 35.703125 34.867188 37.914062 47.890625 39.722656 58.566406 C 39.792969 58.976562 39.835938 59.386719 39.855469 59.792969 L 40.21875 67.414062 C 40.347656 70.050781 39.386719 72.082031 37.832031 72.472656"/><path fill="#DFEDE1" d="M 46.933594 106.363281 L 44.65625 106.933594 L 22.226562 14.136719 C 22.121094 13.703125 22.238281 13.308594 22.492188 13.246094 C 22.746094 13.179688 23.035156 13.476562 23.144531 13.90625 L 46.933594 106.363281"/><path fill="#CDE6D1" d="M 31.449219 73.378906 L 30.605469 73.652344 C 29.457031 74.027344 27.917969 72.78125 26.75 70.535156 C 25.65625 68.441406 24.511719 66.246094 23.3125 63.949219 C 23.09375 63.53125 22.894531 63.085938 22.714844 62.625 L 8.019531 24.71875 C 7.140625 22.453125 6.882812 20.03125 7.355469 18.480469 C 8.003906 16.378906 8.664062 14.222656 9.339844 12.019531 C 9.816406 10.453125 10.960938 10.0625 12.269531 11.015625 C 14.167969 12.398438 16.023438 13.75 17.835938 15.070312 C 19.15625 16.03125 20.402344 18.191406 21.027344 20.589844 C 25.179688 36.511719 28.507812 49.277344 31.238281 59.742188 C 31.34375 60.144531 31.425781 60.546875 31.492188 60.945312 L 32.710938 68.417969 C 33.132812 71 32.625 72.996094 31.449219 73.378906"/><path fill="#DFEDE1" d="M 42.75 106.597656 L 41.03125 107.15625 L 12.042969 16.199219 C 11.90625 15.777344 11.953125 15.386719 12.144531 15.324219 C 12.335938 15.261719 12.601562 15.550781 12.738281 15.972656 L 42.75 106.597656"/><g clip-path="url(#d)"><path fill="#FFB7B0" d="M 59.839844 142.753906 C 48.738281 142.753906 39.738281 133.75 39.738281 122.640625 L 39.738281 104.488281 C 39.738281 104.242188 39.9375 104.042969 40.183594 104.042969 L 79.5 104.042969 C 79.742188 104.042969 79.941406 104.242188 79.941406 104.488281 L 79.941406 122.640625 C 79.941406 133.75 70.941406 142.753906 59.839844 142.753906"/></g><path fill="#1A774F" d="M 79.941406 111.847656 L 39.738281 111.847656 L 39.738281 104.488281 C 39.738281 104.242188 39.9375 104.042969 40.183594 104.042969 L 79.5 104.042969 C 79.742188 104.042969 79.941406 104.242188 79.941406 104.488281 L 79.941406 111.847656"/><g fill="#FFF"><g><g><path d="M 11.632812 -28.601562 L 0.324219 0 L 7.714844 0 L 9.292969 -4.160156 L 18.945312 -4.160156 L 20.523438 0 L 28.320312 0 L 16.5625 -28.601562 Z M 14.140625 -17.210938 L 16.320312 -11.070312 L 16.480469 -10.585938 L 11.796875 -10.585938 L 12.039062 -11.230469 Z M 14.140625 -17.210938" transform="translate(115.488 47.09)"/></g></g></g><g fill="#DFEDE1"><g><g><path d="M 8.28125 -14.097656 C 8.28125 -19.472656 12.160156 -22.136719 16.039062 -22.136719 C 19.269531 -22.136719 22.542969 -20.28125 23.472656 -16.523438 L 30.460938 -16.523438 C 29.570312 -23.792969 23.308594 -28.722656 16.039062 -28.722656 C 7.957031 -28.722656 1.414062 -22.421875 1.414062 -14.097656 C 1.414062 -5.777344 7.957031 0.402344 16.039062 0.402344 C 23.390625 0.402344 29.449219 -4.484375 30.5 -11.878906 L 23.511719 -11.878906 C 22.621094 -8.039062 19.351562 -6.101562 16.039062 -6.101562 C 12.160156 -6.101562 8.28125 -8.765625 8.28125 -14.097656 Z M 8.28125 -14.097656" transform="translate(143.759 47.09)"/></g></g></g><g fill="#DFEDE1"><g><g><path d="M 2.019531 -28.519531 L 2.019531 0 L 20.683594 0 L 20.683594 -6.664062 L 8.96875 -6.664062 L 8.96875 -11.191406 L 20.402344 -11.191406 L 20.402344 -17.894531 L 8.96875 -17.894531 L 8.96875 -21.855469 L 20.644531 -21.855469 L 20.644531 -28.519531 Z M 2.019531 -28.519531" transform="translate(175.55 47.09)"/></g></g></g><g fill="#FFF"><g><g><path d="M 15.148438 -28.277344 L 2.058594 -28.277344 L 2.058594 0 L 15.070312 0 C 21.007812 0 24.117188 -4.566406 24.117188 -9.128906 C 24.117188 -11.511719 22.90625 -13.976562 19.917969 -15.511719 C 21.773438 -16.804688 22.621094 -18.785156 22.621094 -20.722656 C 22.621094 -24.441406 19.632812 -28.277344 15.148438 -28.277344 Z M 14.097656 -18.058594 L 8.886719 -18.058594 L 8.886719 -22.015625 L 14.179688 -22.015625 C 15.269531 -22.015625 15.875 -21.046875 15.875 -20.078125 C 15.875 -19.066406 15.3125 -18.058594 14.097656 -18.058594 Z M 15.070312 -6.542969 L 8.886719 -6.542969 L 8.886719 -11.675781 L 15.070312 -11.675781 C 16.523438 -11.675781 17.25 -10.382812 17.25 -9.089844 C 17.25 -7.796875 16.523438 -6.542969 15.070312 -6.542969 Z M 15.070312 -6.542969" transform="translate(115.488 88.556)"/></g></g></g><g fill="#DFEDE1"><g><g><path d="M 11.632812 -28.601562 L 0.324219 0 L 7.714844 0 L 9.292969 -4.160156 L 18.945312 -4.160156 L 20.523438 0 L 28.320312 0 L 16.5625 -28.601562 Z M 14.140625 -17.210938 L 16.320312 -11.070312 L 16.480469 -10.585938 L 11.796875 -10.585938 L 12.039062 -11.230469 Z M 14.140625 -17.210938" transform="translate(141.167 88.556)"/></g></g></g><g fill="#DFEDE1"><g><g><path d="M 13.210938 -28.277344 L 1.980469 -28.277344 L 1.980469 0 L 13.210938 0 C 22.542969 0 27.226562 -7.027344 27.226562 -14.097656 C 27.226562 -21.167969 22.542969 -28.277344 13.210938 -28.277344 Z M 13.210938 -6.585938 L 8.847656 -6.585938 L 8.847656 -21.734375 L 13.210938 -21.734375 C 17.976562 -21.734375 20.402344 -17.816406 20.402344 -14.097656 C 20.402344 -10.382812 17.976562 -6.585938 13.210938 -6.585938 Z M 13.210938 -6.585938" transform="translate(169.444 88.556)"/></g></g></g><g fill="#DFEDE1"><g><g><path d="M 14.945312 -17.332031 L 7.515625 -28.277344 L 2.019531 -28.277344 L 2.019531 0 L 8.929688 0 L 8.929688 -14.058594 L 13.007812 -7.957031 L 16.847656 -7.957031 L 20.925781 -13.976562 L 20.925781 0 L 27.792969 0 L 27.792969 -28.277344 L 22.378906 -28.277344 Z M 14.945312 -17.332031" transform="translate(197.882 88.556)"/></g></g></g><g fill="#DFEDE1"><g><g><path d="M 18.015625 0 L 18.015625 -6.179688 L 13.332031 -6.179688 L 13.332031 -22.136719 L 18.015625 -22.136719 L 18.015625 -28.441406 L 1.738281 -28.441406 L 1.738281 -22.136719 L 6.421875 -22.136719 L 6.421875 -6.179688 L 1.738281 -6.179688 L 1.738281 0 Z M 18.015625 0" transform="translate(227.855 88.556)"/></g></g></g><g fill="#DFEDE1"><g><g><path d="M 17.128906 -28.277344 L 17.128906 -14.140625 L 7.351562 -28.277344 L 2.019531 -28.277344 L 2.019531 0 L 8.886719 0 L 8.886719 -13.777344 L 18.542969 0 L 23.957031 0 L 23.957031 -28.277344 Z M 17.128906 -28.277344" transform="translate(247.406 88.556)"/></g></g></g><g fill="#DFEDE1"><g><g><path d="M 23.472656 -28.601562 L 1.332031 -28.601562 L 1.332031 -22.136719 L 8.96875 -22.136719 L 8.96875 0 L 15.875 0 L 15.875 -22.136719 L 23.472656 -22.136719 Z M 23.472656 -28.601562" transform="translate(273.501 88.556)"/></g></g></g><g fill="#DFEDE1"><g><g><path d="M 2.058594 -14.097656 C 2.058594 -5.777344 8.605469 0.402344 16.683594 0.402344 C 24.765625 0.402344 31.347656 -5.898438 31.347656 -14.097656 C 31.347656 -22.421875 24.765625 -28.722656 16.683594 -28.722656 C 8.605469 -28.722656 2.058594 -22.421875 2.058594 -14.097656 Z M 8.929688 -14.097656 C 8.929688 -19.472656 12.804688 -22.097656 16.683594 -22.097656 C 20.5625 -22.097656 24.398438 -19.429688 24.398438 -14.097656 C 24.398438 -8.808594 20.480469 -6.140625 16.605469 -6.140625 C 12.726562 -6.140625 8.929688 -8.765625 8.929688 -14.097656 Z M 8.929688 -14.097656" transform="translate(298.829 88.556)"/></g></g></g><g fill="#DFEDE1"><g><g><path d="M 17.128906 -28.277344 L 17.128906 -14.140625 L 7.351562 -28.277344 L 2.019531 -28.277344 L 2.019531 0 L 8.886719 0 L 8.886719 -13.777344 L 18.542969 0 L 23.957031 0 L 23.957031 -28.277344 Z M 17.128906 -28.277344" transform="translate(332.235 88.556)"/></g></g></g><g fill="#FFF"><g><g><path d="M 8.28125 -14.097656 C 8.28125 -19.472656 12.160156 -22.136719 16.039062 -22.136719 C 19.269531 -22.136719 22.542969 -20.28125 23.472656 -16.523438 L 30.460938 -16.523438 C 29.570312 -23.792969 23.308594 -28.722656 16.039062 -28.722656 C 7.957031 -28.722656 1.414062 -22.421875 1.414062 -14.097656 C 1.414062 -5.777344 7.957031 0.402344 16.039062 0.402344 C 23.390625 0.402344 29.449219 -4.484375 30.5 -11.878906 L 23.511719 -11.878906 C 22.621094 -8.039062 19.351562 -6.101562 16.039062 -6.101562 C 12.160156 -6.101562 8.28125 -8.765625 8.28125 -14.097656 Z M 8.28125 -14.097656" transform="translate(115.488 130.023)"/></g></g></g><g fill="#DFEDE1"><g><g><path d="M 2.019531 -28.277344 L 2.019531 0 L 20.804688 0 L 20.804688 -6.664062 L 8.929688 -6.664062 L 8.929688 -28.277344 Z M 2.019531 -28.277344" transform="translate(147.273 130.023)"/></g></g></g><g fill="#DFEDE1"><g><g><path d="M 13.007812 0.402344 C 18.421875 0.402344 23.835938 -2.746094 23.835938 -9.089844 L 23.835938 -28.277344 L 16.925781 -28.277344 L 16.925781 -9.128906 C 16.925781 -7.027344 14.90625 -5.980469 12.886719 -5.980469 C 10.90625 -5.980469 8.929688 -7.027344 8.929688 -9.128906 L 8.929688 -28.277344 L 2.019531 -28.277344 L 2.019531 -9.089844 C 2.019531 -2.667969 7.515625 0.402344 13.007812 0.402344 Z M 13.007812 0.402344" transform="translate(169.53 130.023)"/></g></g></g><g fill="#DFEDE1"><g><g><path d="M 15.148438 -28.277344 L 2.058594 -28.277344 L 2.058594 0 L 15.070312 0 C 21.007812 0 24.117188 -4.566406 24.117188 -9.128906 C 24.117188 -11.511719 22.90625 -13.976562 19.917969 -15.511719 C 21.773438 -16.804688 22.621094 -18.785156 22.621094 -20.722656 C 22.621094 -24.441406 19.632812 -28.277344 15.148438 -28.277344 Z M 14.097656 -18.058594 L 8.886719 -18.058594 L 8.886719 -22.015625 L 14.179688 -22.015625 C 15.269531 -22.015625 15.875 -21.046875 15.875 -20.078125 C 15.875 -19.066406 15.3125 -18.058594 14.097656 -18.058594 Z M 15.070312 -6.542969 L 8.886719 -6.542969 L 8.886719 -11.675781 L 15.070312 -11.675781 C 16.523438 -11.675781 17.25 -10.382812 17.25 -9.089844 C 17.25 -7.796875 16.523438 -6.542969 15.070312 -6.542969 Z M 15.070312 -6.542969" transform="translate(195.383 130.023)"/></g></g></g></svg>