<svg xmlns="http://www.w3.org/2000/svg" width="375" viewBox="0 0 375 375" height="375" version="1.0"><defs><clipPath id="a"><path d="M 261.132812 12.097656 L 331.609375 12.097656 L 331.609375 185.292969 L 261.132812 185.292969 Z M 261.132812 12.097656"/></clipPath><clipPath id="b"><path d="M 132.601562 269.058594 L 242.542969 269.058594 L 242.542969 374.972656 L 132.601562 374.972656 Z M 132.601562 269.058594"/></clipPath></defs><path fill="#CDE6D1" d="M 218.746094 180.75 L 223.535156 181.28125 C 230.0625 182.011719 236.40625 178.160156 239.433594 171.628906 C 242.261719 165.535156 245.21875 159.15625 248.316406 152.472656 C 248.878906 151.257812 249.316406 149.976562 249.613281 148.652344 L 274.140625 39.792969 C 275.605469 33.285156 273.597656 26.503906 268.964844 22.34375 C 262.671875 16.6875 256.234375 10.898438 249.644531 4.976562 C 244.960938 0.765625 238.4375 -0.015625 232.90625 2.96875 C 224.871094 7.304688 217.019531 11.539062 209.351562 15.679688 C 203.765625 18.691406 200.214844 24.996094 200.257812 31.804688 C 200.550781 77 200.785156 113.230469 200.976562 142.933594 C 200.984375 144.078125 201.09375 145.214844 201.304688 146.332031 L 205.261719 167.34375 C 206.632812 174.609375 212.054688 180 218.746094 180.75"/><path fill="#DFEDE1" d="M 205.515625 275.734375 L 215.300781 276.824219 L 241.261719 17.261719 C 241.382812 16.054688 240.605469 14.992188 239.519531 14.867188 C 238.4375 14.75 237.445312 15.617188 237.296875 16.816406 L 205.515625 275.734375"/><path fill="#CDE6D1" d="M 247.761719 181.761719 L 250.800781 182.519531 C 254.945312 183.554688 259.75 180.085938 262.84375 173.824219 C 265.730469 167.980469 268.753906 161.863281 271.917969 155.453125 C 272.496094 154.289062 273 153.046875 273.417969 151.765625 L 308.019531 46.097656 C 310.089844 39.78125 309.933594 33.027344 307.617188 28.714844 C 304.46875 22.851562 301.246094 16.855469 297.945312 10.71875 C 295.601562 6.355469 291.46875 5.269531 287.34375 7.929688 C 281.351562 11.789062 275.496094 15.5625 269.777344 19.25 C 265.613281 21.933594 262.214844 27.949219 261.082031 34.636719 C 253.5625 79.015625 247.535156 114.597656 242.59375 143.769531 C 242.402344 144.890625 242.28125 146.011719 242.230469 147.117188 L 241.234375 167.941406 C 240.886719 175.140625 243.515625 180.699219 247.761719 181.761719"/><path fill="#DFEDE1" d="M 222.910156 274.359375 L 229.121094 275.910156 L 290.371094 22.367188 C 290.652344 21.191406 290.328125 20.105469 289.640625 19.933594 C 288.953125 19.761719 288.15625 20.566406 287.855469 21.738281 L 222.910156 274.359375"/><g clip-path="url(#a)"><path fill="#CDE6D1" d="M 265.1875 184.234375 L 267.484375 184.984375 C 270.621094 186.003906 274.820312 182.605469 278.019531 176.46875 C 281.003906 170.742188 284.128906 164.75 287.402344 158.46875 C 287.996094 157.328125 288.546875 156.113281 289.035156 154.855469 L 329.160156 51.292969 C 331.558594 45.097656 332.261719 38.476562 330.964844 34.246094 C 329.203125 28.496094 327.398438 22.613281 325.554688 16.589844 C 324.246094 12.3125 321.128906 11.242188 317.558594 13.84375 C 312.371094 17.625 307.304688 21.316406 302.355469 24.925781 C 298.75 27.550781 295.34375 33.445312 293.632812 40.003906 C 282.300781 83.507812 273.214844 118.382812 265.761719 146.980469 C 265.476562 148.082031 265.242188 149.179688 265.066406 150.265625 L 261.738281 170.679688 C 260.589844 177.738281 261.976562 183.191406 265.1875 184.234375"/></g><path fill="#DFEDE1" d="M 234.328125 275 L 239.023438 276.527344 L 318.171875 28.003906 C 318.539062 26.851562 318.417969 25.785156 317.898438 25.617188 C 317.375 25.449219 316.652344 26.234375 316.269531 27.386719 L 234.328125 275"/><path fill="#CDE6D1" d="M 191.277344 182.078125 L 185.941406 182.078125 C 178.664062 182.078125 172.15625 177.546875 169.625 170.71875 C 167.261719 164.347656 164.789062 157.683594 162.195312 150.695312 C 161.722656 149.425781 161.402344 148.101562 161.234375 146.753906 L 147.585938 35.84375 C 146.773438 29.210938 149.8125 22.699219 155.421875 19.074219 C 163.039062 14.152344 170.835938 9.113281 178.816406 3.957031 C 184.484375 0.296875 191.761719 0.242188 197.484375 3.824219 C 205.796875 9.023438 213.914062 14.101562 221.847656 19.066406 C 227.625 22.679688 230.761719 29.339844 229.878906 36.105469 C 224.019531 80.984375 219.320312 116.96875 215.464844 146.46875 C 215.316406 147.605469 215.058594 148.722656 214.691406 149.808594 L 207.757812 170.253906 C 205.359375 177.320312 198.730469 182.078125 191.277344 182.078125"/><path fill="#DFEDE1" d="M 194.195312 277.945312 L 183.289062 277.945312 L 186.53125 17.097656 C 186.550781 15.886719 187.53125 14.914062 188.742188 14.914062 C 189.953125 14.914062 190.933594 15.886719 190.949219 17.097656 L 194.195312 277.945312"/><path fill="#CDE6D1" d="M 156.542969 181.9375 L 151.753906 182.46875 C 145.222656 183.199219 138.882812 179.347656 135.855469 172.816406 C 133.027344 166.722656 130.070312 160.34375 126.972656 153.660156 C 126.40625 152.445312 125.972656 151.164062 125.671875 149.84375 L 101.148438 40.980469 C 99.683594 34.472656 101.691406 27.691406 106.324219 23.53125 C 112.613281 17.875 119.054688 12.085938 125.644531 6.164062 C 130.324219 1.957031 136.851562 1.171875 142.382812 4.15625 C 150.417969 8.492188 158.265625 12.726562 165.9375 16.867188 C 171.519531 19.878906 175.074219 26.183594 175.03125 32.996094 C 174.738281 78.1875 174.503906 114.417969 174.3125 144.125 C 174.304688 145.269531 174.195312 146.402344 173.984375 147.519531 L 170.023438 168.535156 C 168.65625 175.800781 163.234375 181.1875 156.542969 181.9375"/><path fill="#DFEDE1" d="M 169.773438 276.921875 L 159.988281 278.015625 L 134.023438 18.449219 C 133.90625 17.246094 134.679688 16.175781 135.765625 16.058594 C 136.851562 15.9375 137.84375 16.804688 137.988281 18.007812 L 169.773438 276.921875"/><path fill="#CDE6D1" d="M 127.527344 182.945312 L 124.484375 183.707031 C 120.339844 184.742188 115.539062 181.273438 112.445312 175.011719 C 109.558594 169.167969 106.535156 163.050781 103.367188 156.640625 C 102.792969 155.472656 102.289062 154.238281 101.867188 152.953125 L 67.265625 47.289062 C 65.195312 40.96875 65.355469 34.214844 67.671875 29.902344 C 70.824219 24.042969 74.042969 18.042969 77.34375 11.90625 C 79.6875 7.546875 83.820312 6.457031 87.945312 9.113281 C 93.9375 12.976562 99.792969 16.75 105.511719 20.4375 C 109.675781 23.121094 113.074219 29.136719 114.207031 35.824219 C 121.722656 80.203125 127.75 115.785156 132.691406 144.953125 C 132.882812 146.078125 133.003906 147.199219 133.058594 148.304688 L 134.054688 169.128906 C 134.398438 176.328125 131.773438 181.886719 127.527344 182.945312"/><path fill="#DFEDE1" d="M 152.378906 275.546875 L 146.167969 277.097656 L 84.917969 23.554688 C 84.632812 22.378906 84.957031 21.292969 85.648438 21.121094 C 86.335938 20.949219 87.132812 21.753906 87.433594 22.925781 L 152.378906 275.546875"/><path fill="#CDE6D1" d="M 110.101562 185.421875 L 107.800781 186.171875 C 104.667969 187.191406 100.46875 183.796875 97.269531 177.65625 C 94.28125 171.929688 91.15625 165.9375 87.886719 159.65625 C 87.289062 158.515625 86.742188 157.300781 86.253906 156.046875 L 46.128906 52.480469 C 43.726562 46.285156 43.027344 39.664062 44.324219 35.433594 C 46.085938 29.683594 47.886719 23.800781 49.730469 17.777344 C 51.042969 13.5 54.160156 12.429688 57.730469 15.03125 C 62.917969 18.8125 67.984375 22.503906 72.933594 26.113281 C 76.539062 28.742188 79.945312 34.632812 81.652344 41.191406 C 92.988281 84.695312 102.074219 119.574219 109.523438 148.167969 C 109.8125 149.269531 110.042969 150.367188 110.222656 151.453125 L 113.550781 171.867188 C 114.699219 178.925781 113.3125 184.378906 110.101562 185.421875"/><path fill="#DFEDE1" d="M 140.960938 276.183594 L 136.265625 277.714844 L 57.113281 29.191406 C 56.746094 28.039062 56.871094 26.976562 57.390625 26.804688 C 57.910156 26.636719 58.636719 27.425781 59.015625 28.574219 L 140.960938 276.183594"/><g clip-path="url(#b)"><path fill="#FFB7B0" d="M 187.625 374.972656 C 157.3125 374.972656 132.738281 350.371094 132.738281 320.019531 L 132.738281 270.421875 C 132.738281 269.75 133.28125 269.207031 133.949219 269.207031 L 241.296875 269.207031 C 241.96875 269.207031 242.511719 269.75 242.511719 270.421875 L 242.511719 320.019531 C 242.511719 350.371094 217.9375 374.972656 187.625 374.972656"/></g><path fill="#1A774F" d="M 242.511719 290.527344 L 132.738281 290.527344 L 132.738281 270.421875 C 132.738281 269.75 133.28125 269.207031 133.949219 269.207031 L 241.296875 269.207031 C 241.96875 269.207031 242.511719 269.75 242.511719 270.421875 L 242.511719 290.527344"/></svg>